<?xml version="1.0"?>
<svg width="640" height="480" xmlns="http://www.w3.org/2000/svg" xmlns:svg="http://www.w3.org/2000/svg">
 <!-- Created with SVG-edit - https://github.com/SVG-Edit/svgedit-->
 <g class="layer">
  <title>Layer 1</title>
  <ellipse cx="391" cy="222" fill="#ff7f00" id="svg_13" rx="17" ry="19" stroke="#000000" stroke-width="5"/>
  <ellipse cx="321" cy="222" fill="#ff7f00" id="svg_18" rx="16" ry="16" stroke="#000000" stroke-width="5"/>
  <ellipse cx="463" cy="223" fill="#ff7f00" id="svg_19" rx="22" ry="18" stroke="#000000" stroke-width="5"/>
  <ellipse cx="539" cy="223" fill="#ff7f00" id="svg_20" rx="18" ry="22" stroke="#000000" stroke-width="5"/>
  <ellipse cx="606" cy="227" fill="#ff7f00" id="svg_21" rx="17" ry="22" stroke="#000000" stroke-width="5"/>
  <rect fill="none" height="116.000001" id="svg_22" stroke="#000000" stroke-width="5" width="304.000012" x="318.999988" y="19"/>
  <ellipse cx="149" cy="238" fill="#ffff00" id="svg_30" rx="146" ry="126" stroke="#000000" stroke-width="5"/>
  <path d="m261,157c-1.541672,0.541672 -2.324356,1.179489 -3.014328,1.652664c-0.520752,0.357132 -1.375458,0.889221 -2.285507,1.326004c-0.877792,0.421295 -1.503098,0.575821 -2.533493,1.188004c-0.73616,0.437363 -1.319855,1.008148 -2,1.666656c-0.645691,0.625153 -1.420303,0.955673 -2.266678,1.388c-0.655304,0.334732 -1.295959,0.971176 -1.983994,1.494675c-0.613602,0.466858 -1.475067,0.493713 -2.137329,1.162659c-0.610001,0.616165 -1.166504,1.136017 -1.804001,1.695999c-0.555008,0.487534 -1.357513,0.87973 -2.174667,1.342667c-0.784546,0.444458 -1.197266,1.230133 -1.966675,1.749344c-0.598877,0.404129 -1.470886,0.30957 -2.428833,0.694992c-0.786392,0.316391 -1.462311,1.170624 -2.029831,1.777008c-0.636337,0.679901 -1.410965,0.772659 -2.374664,1.028c-0.806198,0.213608 -1.559372,0.57579 -2.363998,1.233322c-0.677048,0.553268 -1.248398,1.234085 -1.957336,1.700012c-0.658325,0.432663 -1.679871,0.97348 -2.268005,1.5c-0.637863,0.57103 -1.281601,1.174576 -2.246658,1.374664c-0.757004,0.156952 -1.771271,0.365936 -2.363998,0.636002c-1.013031,0.461563 -1.647476,0.721237 -2.314667,1.274658c-0.818985,0.679337 -1.056488,1.401031 -2.028,2.09317c-0.65657,0.467758 -1.483536,0.65564 -2.314499,1.121506c-0.791702,0.443863 -1.465744,0.997345 -2.142838,1.399994c-0.835281,0.496735 -1.458694,1.021759 -2.199997,1.698669c-0.584381,0.533615 -1.299774,1.068054 -1.966675,1.634659c-0.68399,0.581131 -1.314758,0.968521 -1.833328,1.645844c-0.483734,0.631821 -1.475632,0.639435 -2.052673,1.168167c-0.691299,0.633423 -1.258469,1.116241 -1.894653,1.705322c-0.575592,0.53299 -0.994095,1.406036 -1.757172,1.642838c-0.821793,0.25502 -1.52034,0.54808 -2.174164,1.22583c-0.558075,0.578506 -1.424149,0.613144 -2.068665,1.131332c-0.611374,0.491547 -1.054306,1.257599 -1.757172,1.700012c-0.664185,0.418076 -0.915436,1.437515 -1.652664,1.890167c-0.801361,0.492035 -1.627319,0.473679 -2.142838,1.057159c-0.563568,0.637878 -1.118301,1.156006 -1.669327,1.801331c-0.588959,0.689743 -1.444229,1.236191 -1.881332,1.798676c-0.588104,0.75679 -1.260056,1.086121 -1.949341,1.899994c-0.583145,0.688538 -1.220673,1.047897 -1.9785,1.600006c-0.755646,0.550522 -1.233383,1.341263 -2.121506,1.778656c-0.654434,0.322296 -1.331131,0.812607 -1.899994,1.60051c-0.431152,0.597183 -1.399994,0.956833 -2,1.520828c-0.600006,0.563995 -1.567825,0.876022 -2.300003,1.357162c-0.79425,0.521927 -1.174561,1.169281 -1.899994,1.841507c-0.58046,0.537888 -1.235748,1.043411 -1.966675,1.634659c-0.6978,0.564468 -1.523758,0.590714 -2.3125,1.166672c-0.640274,0.467529 -1.009583,1.286972 -1.742325,1.878662c-0.645813,0.521484 -1.381165,0.729324 -2.078506,1.421341c-0.702682,0.697311 -1.188873,1.245163 -2.021332,1.800003c-0.655518,0.436905 -1.54097,0.864655 -2.157837,1.399994c-0.75885,0.658569 -1.220779,1.200043 -1.920822,1.899994c-0.699966,0.69989 -1.390549,1.089645 -2.079178,1.600006c-0.694824,0.514954 -1.225327,1.052673 -2.020828,1.5c-0.795502,0.447327 -1.290527,1.04454 -1.857162,1.795502c-0.504837,0.669052 -1.492844,0.717072 -2.142838,1.225327c-0.769089,0.601379 -1.23732,1.2099 -2.152664,1.779175c-0.680695,0.42334 -1.482224,0.877426 -2.042831,1.399994c-0.720963,0.672028 -1.084518,1.596771 -1.657166,2.24733c-0.518326,0.588837 -1.126724,1.164551 -1.700012,1.700012c-0.685211,0.639999 -1.255341,1.119644 -1.894653,1.705322c-0.583267,0.534332 -1.624588,0.850998 -1.886002,1.647339c-0.274521,0.836304 1.058929,0.742798 1.71199,1.221329c0.70137,0.513931 1.269333,1.146072 1.921341,1.494675c0.847382,0.453064 1.6604,0.859329 2.399994,1.199997c0.86322,0.397598 1.61554,0.762482 2.400009,1.109329c0.818024,0.361694 1.60463,0.849731 2.5,0.974838c0.906464,0.126648 1.437958,0.743698 2.299988,0.963837c0.959641,0.245071 1.54248,0.691299 2.314346,0.983322c0.657135,0.248611 1.696945,0.311523 2.485657,0.663345c0.812531,0.362442 1.56839,0.830093 2.314667,1.103989c0.963013,0.353455 1.806046,0.509644 2.547836,0.806183c0.708435,0.283173 1.90567,0.683258 2.598831,0.87915c0.722809,0.204285 1.459518,0.387848 2.516998,0.700012c0.978378,0.288788 1.583206,0.478516 2.654999,0.899994c0.715256,0.281281 1.54657,0.708496 2.566666,0.915985c0.791245,0.16095 1.806625,0.287964 2.410675,0.52002c0.884842,0.339905 1.869354,0.770203 2.403992,0.953339c0.771851,0.264404 1.988541,0.503479 2.667999,0.694672c0.978256,0.275269 1.516479,0.631439 2.520004,1.115997c0.635696,0.306946 1.360092,0.624481 2.566666,1c0.687775,0.21405 1.416885,0.39679 2.14801,0.599976c1.062286,0.295197 2.032715,0.601044 2.635986,0.764008c1.07457,0.290283 2.018005,0.322571 2.76001,0.52002c0.895325,0.238251 1.807968,0.795776 2.507492,0.915985c0.978897,0.168243 1.779999,0.45639 2.43634,0.647339c0.952057,0.277008 1.771271,0.299591 2.590164,0.405334c1.036438,0.13385 1.951233,0.47168 2.636673,0.748657c0.999268,0.403809 1.83609,0.700806 2.420502,0.898682c1.193848,0.404205 1.784164,0.618622 2.6595,0.863983c1.061798,0.297638 1.785477,0.338989 2.631485,0.488678c1.016617,0.179871 1.618744,0.484253 2.771179,0.947327c0.515808,0.207245 1.35321,0.502777 2.234665,0.799988c0.897705,0.302673 1.793503,0.608185 2.398666,0.764008c1.190994,0.306671 2.095764,0.380341 2.679169,0.436005c0.835907,0.079742 2.059494,0.365173 2.710159,0.574677c1.004608,0.323456 1.825211,0.353943 2.810669,0.59198c0.827148,0.199799 1.445328,0.537262 2.421341,0.712006c0.797028,0.1427 1.642609,0.092865 2.657166,0.342834c0.921555,0.227051 1.511032,0.598785 2.5215,1.074005c0.594833,0.279755 1.600906,0.577332 2.399994,0.704498c1.00119,0.159332 1.783875,0.474304 2.600006,0.716003c0.984161,0.291443 1.616364,0.239075 2.599991,0.505341c0.817719,0.221344 1.797394,0.627625 2.600006,0.753326c0.797714,0.124939 1.787628,0.398773 2.542831,0.672668c0.895844,0.32489 1.82309,0.521271 2.493164,0.777985c0.764496,0.292908 1.771439,0.500549 2.62117,0.62735c0.968124,0.14447 1.774246,0.365356 2.590164,0.651825c0.792297,0.278168 1.687943,0.730743 2.466003,1.010162c0.834274,0.299622 1.789963,0.209656 2.688004,0.286682c0.975784,0.083679 1.604294,0.476196 2.314651,0.714661c1.050018,0.352478 1.997009,0.141937 2.884003,0.294678c0.83316,0.143463 1.586304,0.90152 2.300018,0.984833c0.929657,0.108551 1.783997,-0.000092 2.647308,0.004486c1.006042,0.005341 1.526611,0.725586 2.263336,0.989319c0.837372,0.299774 1.824158,-0.232208 2.684845,0.015167c0.767883,0.220703 1.225159,0.985077 2.104492,0.995514c0.899933,0.010681 1.860077,-0.107941 2.551849,0.352661c0.695007,0.462738 1.413696,0.491272 2.41217,0.65802c0.867523,0.144897 1.620087,0.923157 2.335999,0.984833c0.940796,0.081024 1.508759,-0.554962 2.17865,-1.216858c0.61673,-0.609375 0.846985,-1.260132 1.125824,-2.074158c0.279114,-0.814819 1.188507,-1.108124 1.711517,-1.788513c0.469879,-0.611267 0.654633,-1.344971 1.162506,-2.137482c0.478516,-0.746735 0.342072,-1.745178 0.696167,-2.37851c0.481506,-0.861237 0.425323,-1.799988 0.425323,-2.699982c0,-0.900024 -0.036652,-1.800751 0,-2.700012c0.028595,-0.701752 0.685516,-1.422577 0.942841,-2.299988c0.253448,-0.864197 0.679993,-1.449829 1.036316,-2.220856c0.364594,-0.78891 0.737823,-1.356232 1.010162,-2.089813c0.309723,-0.834259 0.476624,-1.625427 0.889343,-2.489349c0.407318,-0.852661 0.876801,-1.438965 1.100494,-2.399994c0.204163,-0.877106 0.463196,-1.611816 0.854187,-2.5c0.28952,-0.657654 0.001465,-1.619202 0.1875,-2.5c0.178986,-0.847382 0.918274,-1.593872 0.979156,-2.5c0.053619,-0.798203 0.370697,-1.428925 0.87851,-2.221497c0.478455,-0.74675 0.12149,-1.778503 0.12149,-2.578506c0,-0.899994 0,-1.800003 0,-2.699997c0,-0.899994 0,-1.800003 0,-2.699997c0,-0.900009 0,-1.800003 0,-2.600006c0,-0.899994 0,-1.800003 0,-2.699997c0,-0.899994 0,-1.800003 0,-2.699997c0,-0.900009 0,-1.800003 0,-2.600006c0,-0.899994 0,-1.800003 0,-2.699997c0,-0.899994 0,-1.800003 0,-2.699997c0,-0.900009 0,-1.800003 0,-2.600006c0,-0.899994 0,-1.800003 0,-2.699997c0,-0.899994 0.075836,-1.823563 -0.166656,-2.666672c-0.195618,-0.680054 -0.739868,-1.655182 -0.822662,-2.422668c-0.099915,-0.926178 -0.010681,-1.894653 -0.010681,-2.585327c0,-1.072662 0.110626,-2.002441 -0.020844,-2.804504c-0.144379,-0.880753 -0.909149,-1.457794 -0.968475,-2.206161c-0.083588,-1.054245 0.170685,-1.968155 -0.177338,-2.814667c-0.275909,-0.671097 -0.822906,-1.499817 -0.833344,-2.399994c-0.010406,-0.899948 0,-1.800003 0,-2.700012c0,-0.899994 -0.106079,-1.68811 -0.5,-2.399994c-0.490234,-0.885971 -0.314362,-1.717651 -0.501343,-2.698669c-0.144348,-0.75737 -0.980011,-1.236786 -0.998657,-2.101334c-0.019379,-0.898453 -0.607666,-1.439178 -0.963989,-2.136002c-0.43454,-0.849808 -0.752655,-1.441177 -1.02533,-2.174667c-0.302826,-0.814606 -0.801453,-1.390213 -1.009338,-2.190659c-0.212036,-0.816452 -0.834686,-1.365341 -1.001343,-2.198669c-0.166656,-0.833328 -0.78775,-1.306442 -1.001343,-2.198669c-0.179504,-0.749817 -0.748108,-1.27504 -1.003143,-2.096832c-0.236816,-0.763077 -1.151306,-1.145798 -1.642853,-1.757172c-0.518188,-0.644516 -0.164246,-1.675018 -0.388672,-2.547333c-0.22287,-0.866211 -1.161499,-1.424301 -1.606812,-2.099991c-0.47168,-0.715698 -1.012482,-1.347778 -1.409851,-2.004501c-0.477844,-0.789734 -1.149261,-1.493576 -1.647339,-1.995499c-0.692017,-0.697342 -1.067078,-1.59729 -1.583984,-2.216003c-0.548828,-0.656937 -0.645111,-1.432449 -1.141327,-2.05867c-0.526978,-0.665054 -1.063416,-1.210938 -1.741333,-1.858658c-0.632233,-0.604065 -1.17749,-1.124146 -1.833344,-1.666672c-0.602966,-0.498779 -1.56076,-0.45462 -2.02533,-1.110672c-0.508728,-0.71843 -1.271454,-1.169327 -1.921997,-1.741989c-0.588837,-0.518326 -0.99408,-1.406036 -1.757172,-1.642838c-0.821777,-0.25502 -1.344452,-0.834778 -2.096832,-1.003174c-0.878845,-0.196701 -1.644348,-0.543411 -2.145996,-1.296829c-0.458923,-0.68927 -1.348175,-0.709 -2.037994,-1.129837l-0.720001,-0.521988l-0.726685,-0.136673" fill="#ffffff" id="svg_34" stroke="#ffffff" stroke-width="5"/>
  <ellipse cx="91" cy="170" fill="#000000" id="svg_35" rx="20" ry="23" stroke="#ffffff" stroke-width="0"/>
  <path d="m349,82c0.057159,-1.699997 0.490356,-2.530998 1.200012,-3.198669c0.576355,-0.542252 1.441132,-0.854996 1.884003,-1.602661c0.414398,-0.699608 0.746918,-1.551277 1.199982,-2.398666c0.348602,-0.652008 1.046082,-1.250755 1.549347,-1.966667c0.488739,-0.695251 0.290955,-1.610764 0.741333,-2.433334c0.427277,-0.780388 0.373444,-1.733856 0.850647,-2.374672c0.507721,-0.68177 0.646576,-1.457153 1.149353,-2.050659c0.536835,-0.633698 0.960388,-1.461273 1.525146,-2.074669c0.631073,-0.685406 0.890991,-1.518208 1.3255,-2.300003c0.455353,-0.819305 1.141449,-1.277699 1.538666,-2.035999c0.399261,-0.762218 0.709351,-1.385529 1.02533,-2.174667c0.323059,-0.806793 0.467377,-1.519741 1.094696,-2.105331c0.688354,-0.642578 0.657379,-1.510639 1.137329,-2.162666c0.513977,-0.698246 1.221802,-1.232063 2.078644,-1.116833c0.934814,0.125717 1.442566,0.73008 2,1.652664c0.325592,0.53886 0.775665,1.556213 1.220856,2.342834c0.345795,0.610973 0.970551,1.391323 1.458313,1.979168c0.700165,0.843811 0.663483,1.693428 1.041687,2.5c0.360565,0.769012 1.348816,0.949978 1.857666,1.742332c0.479248,0.74625 0.342072,1.745171 0.696167,2.378498c0.481506,0.861252 0.329865,1.844543 0.70932,2.599998c0.435577,0.86721 0.302704,1.623444 0.773163,2.442833c0.466278,0.812073 1.340424,1.040688 1.890167,1.71434c0.574921,0.704506 0.779297,1.385635 1.348175,2.286499c0.436401,0.691078 0.447296,0.130737 0.925842,-0.522339c0.513916,-0.701347 1.159424,-1.270386 1.494659,-2.00666c0.333893,-0.733322 0.321655,-1.729088 0.567993,-2.513336c0.245331,-0.781052 0.537628,-1.928207 1.068665,-2.548668c0.508911,-0.594589 0.540375,-1.359207 0.648682,-2.252666c0.111481,-0.919765 0.479248,-1.738239 1.051331,-2.442833c0.502136,-0.618462 0.610199,-1.506081 1.113983,-2.190498c0.480713,-0.653095 1.118317,-1.226227 1.480682,-1.866669c0.464417,-0.820789 0.8414,-1.4856 1.519318,-2.133331c0.632202,-0.604065 1.310516,-1.242477 1.854187,-0.625c0.585968,0.665485 0.865662,1.27346 1.49649,2.059666c0.622833,0.776211 0.832977,1.481709 1.681335,2.229332c0.636627,0.561031 1.163452,1.105774 1.801331,1.669334c0.583496,0.515518 0.601624,1.320187 1.057159,2.142834c0.386688,0.698292 1.317841,1.030472 1.657501,1.8745c0.329498,0.818802 0.268036,1.794006 0.785339,2.482666c0.469971,0.625664 0.589478,1.417366 1.074677,2.02533c0.498383,0.624496 0.425323,1.574669 0.461334,2.538673l0.611328,0.488663l0.436676,0.748665l0.415985,0.698669" fill="none" id="svg_38" stroke="#000000" stroke-width="5"/>
  <path d="m421,65c1.700012,0.057167 2.52359,0.460411 3.295502,0.947334c0.702423,0.4431 1.315094,1.047333 2.204498,1.052666c0.899963,0.005394 1.799988,0 2.700012,0c0.899994,0 1.800446,0.027084 2.599976,0c0.844299,-0.028603 1.366669,-0.833336 2.200012,-1c0.833344,-0.166664 1.336792,-0.85125 1.97467,-1.425331c0.578735,-0.520859 1.019989,-1.185287 1.02533,-2.074669c0.005402,-0.899986 0,-1.799999 0,-2.700001c0,-0.899998 0.383942,-2.004452 -0.221497,-2.678665c-0.554596,-0.617603 -1.569336,-0.613739 -2.25766,-1.121334c-0.696045,-0.513298 -1.322174,-0.999332 -2.220856,-1c-0.899994,-0.000668 -1.838867,0.060619 -2.599976,-0.352665c-0.746246,-0.405209 -1.5,-0.646667 -2.400024,-0.647335c-0.899994,-0.000668 -1.760284,0.135853 -2.352661,0.647335c-0.656006,0.56641 -1.639099,0.786285 -1.911316,1.752666c-0.243042,0.862835 -0.702026,1.40881 -1.015167,2.120831c-0.349854,0.79554 -0.746857,1.352932 -1.010162,2.089836c-0.332886,0.931702 -0.010681,1.889332 -0.010681,2.789333c0,0.900002 0,1.799995 0,2.699997c0,0.900002 0,1.700005 0,2.599998c0,0.900002 0,1.800003 0,2.700005c0,0.900002 -0.185883,1.904724 0.283997,2.515999c0.52301,0.680374 1.131897,1.166534 1.768677,1.731331c0.701477,0.622169 1.167114,1.244164 2.047485,1.352837c0.783844,0.096756 1.70755,0.471222 2.415833,0.715836c0.943756,0.325951 1.889587,0.27507 2.484009,0.783997c0.591461,0.506371 1.043976,1.354248 1.801331,1.498665c0.882782,0.168335 1.798676,0.001335 2.698669,0.001335l0.899994,0l0.899994,0l0.900024,0" fill="none" id="svg_39" stroke="#000000" stroke-width="5"/>
  <path d="m465,51c0.057159,1.700001 0.686188,2.422367 0.942841,3.299999c0.253113,0.865566 -0.102295,1.844795 0.223816,2.700001c0.280121,0.734577 0.741943,1.53968 0.797333,2.250668c0.076263,0.978977 0.036011,1.939499 0.036011,2.916c0,0.854164 0,1.833332 0,2.622665c0,0.725334 -0.030609,1.712429 0.352661,2.515163c0.425293,0.890793 0.636902,1.716171 0.647339,2.695503c0.008392,0.789284 0,1.514664 0,2.5c0,0.984001 -0.129761,1.683128 0.004486,2.742836c0.111115,0.877159 0.84137,1.524033 0.984833,2.357162c0.15274,0.887009 0.010681,1.800003 0.015167,2.695503l0.420837,0.679169" fill="none" id="svg_40" stroke="#000000" stroke-width="5"/>
  <path d="m476,57c1,1 1.013458,1.850197 1.520844,2.5c0.59967,0.768009 1.318268,1.27026 1.47467,2.200001c0.13623,0.809841 0.276611,1.791412 0.615143,2.510666c0.374817,0.796329 0.835419,1.555798 1.104004,2.304001c0.337891,0.941303 0.285339,1.885334 0.285339,2.785336c0,0.899994 0,1.800163 0,2.585327c0,0.961334 0,1.801338 0,2.797333l0,0.796501l0,0.751503l0,1.097336" fill="none" id="svg_41" stroke="#000000" stroke-width="5"/>
  <path d="m470,68c1.700012,0 2.700073,-0.010666 3.600006,0c0.879333,0.010422 1.425323,0.574669 2.104492,0.995499l0.895508,0.004501l0.87915,0.020836" fill="none" id="svg_42" stroke="#000000" stroke-width="5"/>
  <path d="m489,55c0,1.799999 -0.144897,2.717083 0.020844,3.5c0.180237,0.851376 0.876099,1.658012 0.958313,2.5c0.095123,0.974258 0.040497,1.765858 0.373505,2.652668c0.265259,0.706417 0.505005,1.599201 0.648682,2.547333c0.138824,0.916042 0.410248,1.647953 1.023987,2.364002c0.523651,0.610947 1.375488,0.636223 2.058655,1.152c0.615356,0.464569 1.409729,0.565529 2.137512,1.162666c0.729004,0.598106 1.432617,0.931198 2.378479,1.110664c0.884338,0.167786 1.837219,0.261452 2.695496,0.006165c0.762634,-0.226837 0.509644,-1.317184 0.705872,-2.194168c0.180603,-0.807045 0.671082,-1.298126 1.009338,-2.190666c0.277283,-0.731743 0.820862,-1.241131 1.010132,-2.110664c0.184204,-0.846283 0.918274,-1.593876 0.979187,-2.5c0.05365,-0.798199 0,-1.700001 0,-2.599998c0,-0.900002 0,-1.800003 0,-2.700001c0,-0.897335 0,-1.042667 0,-0.216c0,0.863331 -0.114319,1.931828 0.283997,2.716c0.334839,0.659172 0.713745,1.499992 0.716003,2.399998c0.002258,0.899998 -0.095459,1.84454 0.283997,2.600002c0.435547,0.867199 0.88269,1.633331 1.630676,2.085331l0.08551,0.814499l0.283813,0.81617l0.690674,0.509331" fill="none" id="svg_43" stroke="#000000" stroke-width="5"/>
  <path d="m522,56c0,1.799999 0.001953,2.619602 -0.425354,3.400002c-0.450378,0.822559 -0.54071,1.700638 -0.574646,2.599998c-0.028625,0.758785 -0.395325,1.641731 -0.647339,2.404499c-0.322998,0.977501 -0.243835,1.765831 -0.354004,2.710171c-0.117004,1.002785 -0.808228,1.539467 -0.987976,2.485329c-0.160278,0.843315 -0.184204,0.361748 0.074646,-0.400002c0.301758,-0.887901 0.710632,-1.695175 1.200012,-2.398663c0.545837,-0.784618 1.269043,-1.219025 1.936157,-1.679836c0.729675,-0.504028 1.778503,-0.121498 2.578491,-0.121498c0.900024,0 1.799988,0 2.700012,0c0.900024,0 1.856628,-0.136559 2.700012,0.284c0.661621,0.329922 1.348083,0.930294 1.966675,1.549332c0.617737,0.618214 0.709351,1.375271 0.833496,2.266499c0.111694,0.80188 0.971191,1.255882 0.999817,2.100166c0.030457,0.899483 0,1.800003 0,2.557167l0,0.8955l0,0.863335l0,0.963165" fill="none" id="svg_44" stroke="#000000" stroke-width="5"/>
  <path d="m552,63c-1.700012,0 -2.599976,0 -3.5,0c-0.900024,0 -1.905579,-0.008934 -2.5,0.5c-0.591431,0.506367 -0.997742,1.204491 -1,2.099998c-0.002258,0.899998 -0.144348,1.876282 0.357178,2.700005c0.347778,0.571228 1.16925,1.174568 1.841492,1.899994c0.537903,0.58046 0.792175,1.418205 1.226685,2.200005c0.455383,0.819305 0.998535,1.41391 1.774658,1.88533c0.676331,0.410812 1.1828,1.132301 1.899963,1.814499c0.586365,0.557762 1.499939,0.900169 2.400024,0.900169c0.900085,0 1.86261,-0.168152 2.333313,-1c0.361267,-0.638443 0.627075,-1.523605 1.114014,-2.295502c0.443115,-0.702446 1.042236,-1.225151 1.052673,-2.1045c0.010681,-0.89994 0,-1.799995 0,-2.699997c0,-0.900002 -0.673889,-2.25272 -0.938354,-1.547333c-0.254822,0.679749 1.290283,0.964043 1.738342,1.533997c0.566162,0.720161 0.906128,1.502579 1.116028,2.512001c0.15741,0.756912 0.454956,1.674538 0.799988,2.485336c0.314331,0.738609 0.31366,1.657333 0.783997,2.595161c0.372803,0.743347 0.5,1.620834 0.5,2.520836c0,0.800003 0.010376,1.700058 0,2.599998c-0.010437,0.900185 -0.38092,1.687088 -0.801331,2.285332c-0.63562,0.90448 -0.955505,1.609596 -1.798645,2.129333c-0.765564,0.471893 -1.600037,0.901337 -2.400024,1.152l-0.700012,0.480667l-0.864014,0.377998l-0.488647,0.622002" fill="none" id="svg_45" stroke="#000000" stroke-width="5"/>
  <path d="m573,63c0,1 0,1.799999 0,2.700001c0,0.899998 0,1.799999 0,2.700001c0,0.900002 0,1.799995 0,2.699997c0,0.900002 0,1.700005 0,2.657166c0,0.8955 0,1.590172 0,2.606834c0,0.936005 0,1.835999 0,2.736168c0,0.785164 0,1.735832 0,2.501167c0,0.994164 0,1.741501 0,2.762665c0,0.936005 0,1.835999 0,2.735672c0,0.33783 0,-0.585007 0,-1.310341c0,-0.989326 -0.006653,-1.789352 0,-2.78933c0.005371,-0.800056 0.049011,-1.610367 0.352661,-2.6045c0.26355,-0.862808 0.55304,-1.8144 0.611328,-2.620834c0.059265,-0.820465 -0.026062,-1.856667 0.056824,-2.733002c0.083557,-0.883133 0.723816,-1.569504 0.943176,-2.441666c0.219727,-0.873711 0.342834,-1.646797 0.752014,-2.400002c0.433228,-0.797508 1.196167,-0.835655 1.926819,-1.257164c0.811096,-0.467926 1.243835,-0.942162 2.182495,-0.942833c1.007996,-0.000717 1.764038,0 2.674683,0l0.900024,0l0.899963,0.004501" fill="none" id="svg_46" stroke="#000000" stroke-width="5"/>
  <path d="m591,67c0.574646,1.636002 0.855591,2.500381 1.06134,3.21067c0.294983,1.018265 0.840637,1.540359 1.370667,2.303993c0.563904,0.812439 0.835815,1.700836 1.369324,2.285339c0.65686,0.719711 1.006287,1.416695 1.198853,2.299828c0.184082,0.844269 0.984314,1.316681 1.499817,1.900169c0.563538,0.637871 1.263611,1.070572 1.5,2c0.209473,0.823624 1,1.166664 1.599976,1.574669l0.879211,0.425331" fill="none" id="svg_47" stroke="#000000" stroke-width="5"/>
  <line fill="none" id="svg_74" stroke="#000000" stroke-width="5" x1="610" x2="597" y1="64" y2="111"/>
  <rect fill="#ffffff" height="125" id="svg_75" stroke="#ffffff" stroke-width="5" width="17" x="311" y="14"/>
  <line fill="none" id="svg_78" stroke="#000000" stroke-width="5" x1="330" x2="238" y1="20" y2="105"/>
  <line fill="none" id="svg_80" stroke="#000000" stroke-width="5" x1="330" x2="236" y1="134" y2="106"/>
  <line fill="none" id="svg_81" stroke="#000000" stroke-width="5" x1="260" x2="133" y1="156" y2="244"/>
  <line fill="none" id="svg_82" stroke="#000000" stroke-width="5" x1="280" x2="132" y1="293" y2="247"/>
 </g>
</svg>